<svg width="22" height="22" viewBox="0 0 22 22" fill="none" xmlns="http://www.w3.org/2000/svg">
<path d="M21.8081 4.3659C21.7317 4.27439 21.636 4.20078 21.528 4.15027C21.4199 4.09977 21.3021 4.0736 21.1828 4.07362H4.75392L4.25592 1.33818C4.18771 0.962735 3.98989 0.623132 3.69695 0.378584C3.40402 0.134036 3.03454 5.51511e-05 2.65295 0H0.814724C0.598646 0 0.391418 0.0858368 0.238627 0.238627C0.0858367 0.391418 0 0.598646 0 0.814725C0 1.0308 0.0858367 1.23803 0.238627 1.39082C0.391418 1.54361 0.598646 1.62945 0.814724 1.62945H2.64785L5.2509 15.9167C5.32758 16.3404 5.51483 16.7363 5.79371 17.0644C5.4088 17.4239 5.13098 17.883 4.99106 18.3908C4.85114 18.8986 4.85458 19.4352 5.00101 19.9411C5.14744 20.447 5.43113 20.9025 5.82062 21.257C6.21011 21.6116 6.69019 21.8513 7.20762 21.9497C7.72505 22.048 8.25961 22.0012 8.75202 21.8143C9.24444 21.6274 9.67547 21.3077 9.99732 20.8908C10.3192 20.4739 10.5193 19.976 10.5754 19.4523C10.6316 18.9286 10.5416 18.3996 10.3154 17.9239H14.941C14.7588 18.3055 14.6644 18.7231 14.665 19.146C14.665 19.71 14.8323 20.2613 15.1456 20.7303C15.4589 21.1992 15.9043 21.5647 16.4253 21.7805C16.9464 21.9963 17.5197 22.0528 18.0729 21.9428C18.626 21.8327 19.1341 21.5612 19.5329 21.1624C19.9317 20.7636 20.2033 20.2555 20.3133 19.7023C20.4233 19.1492 20.3669 18.5758 20.151 18.0548C19.9352 17.5337 19.5697 17.0884 19.1008 16.7751C18.6319 16.4617 18.0806 16.2945 17.5166 16.2945H7.65535C7.46456 16.2945 7.27982 16.2275 7.13335 16.1052C6.98688 15.9829 6.88797 15.8131 6.85387 15.6254L6.53103 13.8503H18.3445C18.9169 13.8502 19.4711 13.6493 19.9105 13.2824C20.35 12.9156 20.6467 12.4062 20.749 11.843L21.9874 5.03398C22.0083 4.91629 22.0031 4.79543 21.9722 4.67998C21.9412 4.56452 21.8852 4.45729 21.8081 4.3659ZM8.96197 19.146C8.96197 19.3877 8.89029 19.624 8.75601 19.825C8.62172 20.026 8.43086 20.1826 8.20755 20.2751C7.98425 20.3676 7.73852 20.3918 7.50146 20.3446C7.2644 20.2975 7.04665 20.1811 6.87574 20.0102C6.70482 19.8393 6.58843 19.6215 6.54128 19.3844C6.49412 19.1474 6.51832 18.9017 6.61082 18.6784C6.70332 18.455 6.85996 18.2642 7.06093 18.1299C7.2619 17.9956 7.49818 17.9239 7.73988 17.9239C8.064 17.9239 8.37484 18.0527 8.60403 18.2819C8.83321 18.5111 8.96197 18.8219 8.96197 19.146ZM18.7387 19.146C18.7387 19.3877 18.667 19.624 18.5327 19.825C18.3984 20.026 18.2076 20.1826 17.9842 20.2751C17.7609 20.3676 17.5152 20.3918 17.2782 20.3446C17.0411 20.2975 16.8233 20.1811 16.6524 20.0102C16.4815 19.8393 16.3651 19.6215 16.318 19.3844C16.2708 19.1474 16.295 18.9017 16.3875 18.6784C16.48 18.455 16.6366 18.2642 16.8376 18.1299C17.0386 17.9956 17.2749 17.9239 17.5166 17.9239C17.8407 17.9239 18.1515 18.0527 18.3807 18.2819C18.6099 18.5111 18.7387 18.8219 18.7387 19.146ZM19.146 11.5518C19.1118 11.74 19.0125 11.9102 18.8654 12.0326C18.7183 12.1549 18.5328 12.2216 18.3415 12.2209H6.23468L5.05027 5.70307H20.2062L19.146 11.5518Z" fill="#92DAD9"/>
</svg>
