<?xml version="1.0" encoding="UTF-8" standalone="no" ?>
<!DOCTYPE svg PUBLIC "-//W3C//DTD SVG 1.1//EN" "http://www.w3.org/Graphics/SVG/1.1/DTD/svg11.dtd">
<svg xmlns="http://www.w3.org/2000/svg" xmlns:xlink="http://www.w3.org/1999/xlink" version="1.1" width="1080" height="1080" viewBox="0 0 1080 1080" xml:space="preserve">
<desc>Created with Fabric.js 5.2.4</desc>
<defs>
</defs>
<rect x="0" y="0" width="100%" height="100%" fill="transparent"></rect>
<g transform="matrix(1 0 0 1 540 540)" id="e86ae22c-5bc9-4074-9494-ddbac3ce0c42"  >
<rect style="stroke: none; stroke-width: 1; stroke-dasharray: none; stroke-linecap: butt; stroke-dashoffset: 0; stroke-linejoin: miter; stroke-miterlimit: 4; fill: rgb(255,255,255); fill-rule: nonzero; opacity: 1; visibility: hidden;" vector-effect="non-scaling-stroke"  x="-540" y="-540" rx="0" ry="0" width="1080" height="1080" />
</g>
<g transform="matrix(1 0 0 1 540 540)" id="fa2844ef-847b-498c-a826-b76cbc72aa67"  >
</g>
<g transform="matrix(49.09 0 0 49.09 540 540)"  >
<path style="stroke: none; stroke-width: 1; stroke-dasharray: none; stroke-linecap: butt; stroke-dashoffset: 0; stroke-linejoin: miter; stroke-miterlimit: 4; fill: rgb(146,218,217); fill-rule: nonzero; opacity: 1;"  transform=" translate(-11, -9.43)" d="M 15.9107 0 C 13.8826 0 12.1069 0.872143 11 2.34634 C 9.89312 0.872143 8.11741 0 6.08929 0 C 4.47487 0.00181965 2.92709 0.643952 1.78552 1.78552 C 0.643952 2.92709 0.00181965 4.47486 0 6.08928 C 0 12.9643 10.1937 18.5291 10.6278 18.7589 C 10.7422 18.8205 10.8701 18.8527 11 18.8527 C 11.1299 18.8527 11.2578 18.8205 11.3722 18.7589 C 11.8063 18.5291 22 12.9643 22 6.08928 C 21.9982 4.47486 21.356 2.92709 20.2145 1.78552 C 19.0729 0.643952 17.5251 0.00181965 15.9107 0 Z M 11 17.1679 C 9.20661 16.1229 1.57143 11.3624 1.57143 6.08928 C 1.57299 4.89155 2.04948 3.74332 2.8964 2.8964 C 3.74333 2.04948 4.89155 1.57299 6.08929 1.57143 C 7.99955 1.57143 9.60339 2.58893 10.2732 4.22321 C 10.3324 4.36732 10.4331 4.49058 10.5625 4.57732 C 10.6919 4.66407 10.8442 4.71038 11 4.71038 C 11.1558 4.71038 11.3081 4.66407 11.4375 4.57732 C 11.5669 4.49058 11.6676 4.36732 11.7268 4.22321 C 12.3966 2.58598 14.0004 1.57143 15.9107 1.57143 C 17.1084 1.57299 18.2567 2.04948 19.1036 2.8964 C 19.9505 3.74332 20.427 4.89155 20.4286 6.08928 C 20.4286 11.3546 12.7914 16.1219 11 17.1679 Z" stroke-linecap="round" />
</g>
</svg>