<?xml version="1.0" encoding="UTF-8" standalone="no" ?>
<!DOCTYPE svg PUBLIC "-//W3C//DTD SVG 1.1//EN" "http://www.w3.org/Graphics/SVG/1.1/DTD/svg11.dtd">
<svg xmlns="http://www.w3.org/2000/svg" xmlns:xlink="http://www.w3.org/1999/xlink" version="1.1" width="1080" height="1080" viewBox="0 0 1080 1080" xml:space="preserve">
<desc>Created with Fabric.js 5.2.4</desc>
<defs>
</defs>
<rect x="0" y="0" width="100%" height="100%" fill="transparent"></rect>
<g transform="matrix(1 0 0 1 540 540)" id="e86ae22c-5bc9-4074-9494-ddbac3ce0c42"  >
<rect style="stroke: none; stroke-width: 1; stroke-dasharray: none; stroke-linecap: butt; stroke-dashoffset: 0; stroke-linejoin: miter; stroke-miterlimit: 4; fill: rgb(255,255,255); fill-rule: nonzero; opacity: 1; visibility: hidden;" vector-effect="non-scaling-stroke"  x="-540" y="-540" rx="0" ry="0" width="1080" height="1080" />
</g>
<g transform="matrix(1 0 0 1 540 540)" id="fa2844ef-847b-498c-a826-b76cbc72aa67"  >
</g>
<g transform="matrix(108 0 0 108 540 540)"  >
<path style="stroke: none; stroke-width: 1; stroke-dasharray: none; stroke-linecap: butt; stroke-dashoffset: 0; stroke-linejoin: miter; stroke-miterlimit: 4; fill: rgb(236,164,164); fill-rule: nonzero; opacity: 1;"  transform=" translate(-5, -5)" d="M 9.88741 9.34377 L 7.4828 6.93964 C 8.17975 6.10291 8.52729 5.02969 8.45311 3.94324 C 8.37894 2.8568 7.88876 1.84077 7.08455 1.10653 C 6.28034 0.372284 5.22402 -0.0236488 4.13533 0.00109353 C 3.04664 0.0258359 2.00939 0.469349 1.23937 1.23937 C 0.469349 2.00939 0.0258359 3.04664 0.00109353 4.13533 C -0.0236488 5.22402 0.372284 6.28034 1.10653 7.08455 C 1.84077 7.88876 2.8568 8.37894 3.94324 8.45311 C 5.02969 8.52729 6.10291 8.17975 6.93964 7.4828 L 9.34377 9.88741 C 9.37946 9.9231 9.42184 9.95142 9.46848 9.97074 C 9.51512 9.99006 9.56511 10 9.61559 10 C 9.66607 10 9.71606 9.99006 9.7627 9.97074 C 9.80933 9.95142 9.85171 9.9231 9.88741 9.88741 C 9.9231 9.85171 9.95142 9.80933 9.97074 9.7627 C 9.99006 9.71606 10 9.66607 10 9.61559 C 10 9.56511 9.99006 9.51512 9.97074 9.46848 C 9.95142 9.42184 9.9231 9.37946 9.88741 9.34377 Z M 0.779013 4.2368 C 0.779013 3.55292 0.981809 2.88439 1.36176 2.31576 C 1.7417 1.74713 2.28174 1.30393 2.91356 1.04222 C 3.54539 0.780509 4.24064 0.712034 4.91138 0.845453 C 5.58213 0.978873 6.19825 1.3082 6.68183 1.79178 C 7.16541 2.27536 7.49473 2.89148 7.62815 3.56222 C 7.76157 4.23297 7.6931 4.92821 7.43138 5.56004 C 7.16967 6.19187 6.72648 6.7319 6.15785 7.11185 C 5.58922 7.4918 4.92069 7.69459 4.2368 7.69459 C 3.32005 7.69358 2.44114 7.32895 1.7929 6.68071 C 1.14466 6.03247 0.78003 5.15355 0.779013 4.2368 Z" stroke-linecap="round" />
</g>
</svg>